<svg width="24" height="24" viewBox="0 0 24 24" fill="none" xmlns="http://www.w3.org/2000/svg">
<path d="M9.875 19.5C9.53516 19.5 9.25 19.7852 9.25 20.125V22H10.5V20.125C10.5 19.7852 10.2188 19.5 9.875 19.5ZM13.625 19.5C13.2832 19.5 13 19.7832 13 20.125C13 20.4668 13.2832 20.75 13.625 20.75C13.9668 20.75 14.25 20.4668 14.25 20.125C14.25 19.7832 13.9688 19.5 13.625 19.5ZM9.40625 8.71875L9.72676 9.68047C9.77422 9.82285 9.97578 9.82285 10.0232 9.68047L10.3438 8.71875L11.3055 8.39832C11.4479 8.3507 11.4479 8.1493 11.3055 8.10168L10.3438 7.78125L10.0234 6.82031C9.97598 6.67781 9.77441 6.67781 9.72695 6.82031L9.40625 7.78125L8.44531 8.10156C8.30289 8.14918 8.30289 8.35059 8.44531 8.3982L9.40625 8.71875ZM16.1289 14.3203C14.875 15.2266 13.3555 15.75 11.75 15.75C10.1445 15.75 8.62383 15.2254 7.37109 14.3207C4.81836 15.2891 3 17.7539 3 20.6445C3 21.3945 3.60625 22 4.35391 22H8V19.5C8 18.8066 8.55664 18.25 9.25 18.25H14.25C14.9434 18.25 15.5 18.8066 15.5 19.5V22H19.1461C19.8945 22 20.5 21.3945 20.5 20.6445C20.5 17.7539 18.6836 15.2891 16.1289 14.3203ZM5.5 10.75H6.02734C6.99609 12.957 9.1875 14.5 11.75 14.5C14.3125 14.5 16.5078 12.957 17.4727 10.75H18C18.3418 10.75 18.625 10.4668 18.625 10.125V6.375C18.625 6.03516 18.3438 5.75 18 5.75H17.4727C16.5078 3.54297 14.3125 2 11.75 2C9.1875 2 6.99609 3.54297 6.02734 5.75H5.5C5.1582 5.75 4.875 6.03516 4.875 6.375V10.125C4.875 10.4688 5.1582 10.75 5.5 10.75ZM7.0625 7.3125C7.0625 6.44922 7.90234 5.75 8.9375 5.75H14.5625C15.5977 5.75 16.4375 6.44844 16.4375 7.3125V8.25C16.4375 10.3203 14.7578 12 12.6875 12H10.8125C8.74219 12 7.0625 10.3203 7.0625 8.25V7.3125Z" fill="white"/>
</svg>
