<svg width="24" height="24" viewBox="0 0 24 24" fill="none" xmlns="http://www.w3.org/2000/svg">
<path d="M19.1069 12.0002C21.0155 15.0692 21.7689 18.2322 20.0009 20.0001C18.3395 21.6636 15.346 21.1774 11.999 19.092C8.63871 21.1814 5.65451 21.6588 3.99908 20.0013C2.23114 18.2334 2.98452 15.0672 4.89309 12.0014C2.98452 8.93243 2.23114 5.76943 3.99908 4.00149C5.76702 2.23355 8.92921 2.98412 11.999 4.89309C15.0628 2.98452 18.231 2.23114 19.9989 3.99908C21.7669 5.76702 21.0155 8.93042 19.1069 12.0002ZM9.72478 17.4567C8.67487 16.5928 7.7005 15.6888 6.54531 14.2873C5.54562 16.1858 5.31981 17.6877 5.81684 18.1852C6.31307 18.6822 7.78407 18.4532 9.72478 17.4567ZM6.5441 9.71394C7.49357 8.55353 8.55835 7.48875 9.72358 6.53446C7.40999 5.31217 6.19011 5.44196 5.81563 5.81604C5.3186 6.31467 5.54482 7.81742 6.5441 9.71394ZM15.9769 12.0002C14.8357 10.4934 13.5017 9.11123 11.999 8.00627C10.4962 9.11123 9.16226 10.4934 8.02515 12.0002C9.02966 13.3663 10.1949 14.6039 11.999 15.9781C13.3651 14.9334 14.6027 13.8043 15.9769 12.0002ZM13.2486 11.964C13.2486 12.6724 12.6708 13.2498 11.9628 13.2498C11.2549 13.2498 10.6771 12.6724 10.6771 11.964C10.6771 11.2557 11.2549 10.6771 11.9628 10.6771C12.6708 10.6771 13.2486 11.289 13.2486 11.964ZM18.1828 5.81644C17.8066 5.44031 16.5788 5.3178 14.2748 6.53486C15.44 7.48915 16.5048 8.55393 17.4543 9.71434C18.452 7.81742 18.681 6.31467 18.1828 5.81644ZM17.4555 14.2865C16.2951 15.6928 15.3207 16.592 14.276 17.4559C16.1798 18.4556 17.6865 18.6814 18.184 18.1844C18.681 17.6857 18.452 16.183 17.4555 14.2865Z" fill="#577990"/>
</svg>
