<svg width="24" height="24" viewBox="0 0 24 24" fill="none" xmlns="http://www.w3.org/2000/svg">
<path d="M22 11.5884C22 12.1811 21.5187 12.6625 20.9259 12.6625H5.75279L11.6889 18.3257C12.1195 18.7353 12.1349 19.4177 11.7253 19.844C11.3157 20.2732 10.6365 20.2886 10.207 19.8803L2.33392 12.3651C2.12021 12.1655 2 11.8837 2 11.5884C2 11.2932 2.12021 11.0158 2.33269 10.8101L10.2058 3.29483C10.6332 2.8882 11.3132 2.90341 11.7247 3.33286C12.1343 3.75782 12.1189 4.44001 11.6884 4.85111L5.75223 10.5144H20.9661C21.5571 10.5148 22 10.9979 22 11.5884Z" fill="black"/>
</svg>
