<svg width="24" height="24" viewBox="0 0 24 24" fill="none" xmlns="http://www.w3.org/2000/svg">
<path d="M14.6979 8.22222C14.9271 7.45139 14.6563 6.60417 14 6.11111C13.9479 6.07083 13.8924 6.03403 13.8333 6H18.1111C19.6458 6 20.8889 7.24306 20.8889 8.77778V9.33333C21.5035 9.33333 22 9.82986 22 10.4444V12.6667C22 13.2812 21.5035 13.7778 20.8889 13.7778V14.3333C20.8889 15.8681 19.6458 17.1111 18.1111 17.1111H10.5035C10.5833 17.0625 10.6597 17.0069 10.7361 16.9444L13.2326 14.8889H18.1111C18.4167 14.8889 18.6667 14.6389 18.6667 14.3333V8.77778C18.6667 8.47222 18.4167 8.22222 18.1111 8.22222H14.6979ZM2 14.3333V8.77778C2 7.24306 3.24375 6 4.77778 6H11.8299C11.75 6.04896 11.6736 6.07292 11.5972 6.16667L9.10069 8.22222H4.77778C4.47083 8.22222 4.22222 8.47222 4.22222 8.77778V14.3333C4.22222 14.6389 4.47083 14.8889 4.77778 14.8889H7.63542C7.40625 15.6597 7.67708 16.5069 8.33333 17C8.38542 17.0104 8.44097 17.0764 8.5 17.1111H4.77778C3.24375 17.1111 2.00001 15.8681 2.00001 14.3333H2ZM13.1667 7.22222C13.3715 7.375 13.4444 7.64931 13.3438 7.88542L12.0104 11H14.2222C14.4583 11 14.6667 11.1458 14.7465 11.3681C14.8229 11.559 14.7569 11.8368 14.5764 11.9861L9.85417 15.875C9.65625 16.0347 9.37153 16.0417 9.16667 15.8889C8.96181 15.7361 8.88889 15.4618 8.98958 15.2257L10.3229 12.0799H8.11111C7.875 12.0799 7.66667 11.9653 7.58681 11.7431C7.51042 11.5208 7.57639 11.2743 7.75694 11.125L12.4792 7.23611C12.6771 7.04514 12.9618 7.06944 13.1667 7.22222Z" fill="black"/>
</svg>
