<svg width="24" height="24" viewBox="0 0 24 24" fill="none" xmlns="http://www.w3.org/2000/svg">
<path d="M14.3925 10.7501H18.7479C19.2674 10.7501 19.7362 11.0744 19.8846 11.5587C20.0994 12.047 19.9627 12.5978 19.5721 12.9415L9.57227 21.6914C9.13087 22.0742 8.48518 22.1054 8.01331 21.7617C7.54105 21.4179 7.36918 20.7929 7.59925 20.2578L10.6035 13.2501H6.21295C5.72741 13.2501 5.26113 12.9259 5.07797 12.4415C4.89481 11.9532 5.03306 11.4025 5.42507 11.0587L15.4237 2.30958C15.8651 1.92529 16.5096 1.89604 16.9823 2.23912C17.4549 2.58231 17.6268 3.20613 17.3964 3.74284L14.3925 10.7501Z" fill="#577990"/>
</svg>
