<svg width="24" height="24" viewBox="0 0 24 24" fill="none" xmlns="http://www.w3.org/2000/svg">
<path d="M12 2C6.47581 2 2 6.47581 2 12C2 17.5242 6.47581 22 12 22C17.5242 22 22 17.5242 22 12C22 6.47581 17.5242 2 12 2ZM12 20.0645C7.54435 20.0645 3.93548 16.4556 3.93548 12C3.93548 7.54435 7.54435 3.93548 12 3.93548C16.4556 3.93548 20.0645 7.54435 20.0645 12C20.0645 16.4556 16.4556 20.0645 12 20.0645ZM14.4919 15.8548L11.0685 13.3669C10.9435 13.2742 10.871 13.129 10.871 12.9758V6.35484C10.871 6.08871 11.0887 5.87097 11.3548 5.87097H12.6452C12.9113 5.87097 13.129 6.08871 13.129 6.35484V12.0685L15.8226 14.0282C16.0403 14.1855 16.0847 14.4879 15.9274 14.7056L15.1694 15.75C15.0121 15.9637 14.7097 16.0121 14.4919 15.8548Z" fill="black"/>
</svg>
