<svg width="24" height="24" viewBox="0 0 24 24" fill="none" xmlns="http://www.w3.org/2000/svg">
<path d="M3 5.125C3 4.50379 3.50379 4 4.125 4H6.375C6.99727 4 7.5 4.50379 7.5 5.125V10.4477L13.0055 7.48047C13.568 7.17812 14.25 7.58594 14.25 8.22578V10.4477L19.7555 7.48047C20.318 7.17812 21 7.58594 21 8.22578V18.0625C21 18.9941 20.2441 19.75 19.3125 19.75H4.6875C3.75551 19.75 3 18.9941 3 18.0625V5.125ZM11.1562 13.8438C10.8469 13.8438 10.5938 14.0969 10.5938 14.4062V16.0938C10.5938 16.4031 10.8469 16.6562 11.1562 16.6562H12.8438C13.1531 16.6562 13.4062 16.4031 13.4062 16.0938V14.4062C13.4062 14.0969 13.1531 13.8438 12.8438 13.8438H11.1562ZM6.09375 16.0938C6.09375 16.4031 6.34687 16.6562 6.65625 16.6562H8.34375C8.65312 16.6562 8.90625 16.4031 8.90625 16.0938V14.4062C8.90625 14.0969 8.65312 13.8438 8.34375 13.8438H6.65625C6.34687 13.8438 6.09375 14.0969 6.09375 14.4062V16.0938ZM15.6562 13.8438C15.3469 13.8438 15.0938 14.0969 15.0938 14.4062V16.0938C15.0938 16.4031 15.3469 16.6562 15.6562 16.6562H17.3438C17.6531 16.6562 17.9062 16.4031 17.9062 16.0938V14.4062C17.9062 14.0969 17.6531 13.8438 17.3438 13.8438H15.6562Z" fill="black"/>
</svg>
