<svg width="24" height="24" viewBox="0 0 24 24" fill="none" xmlns="http://www.w3.org/2000/svg">
<path d="M13.8115 3.29537L21.668 10.7947C21.88 10.997 22 11.2773 22 11.5706C22 11.8638 21.88 12.1437 21.668 12.3464L13.8115 19.8457C13.3832 20.2531 12.7053 20.2377 12.2964 19.8095C11.8877 19.3854 11.9031 18.7047 12.3327 18.2944L18.2563 12.6431H3.07178C2.48032 12.6431 2 12.1628 2 11.5713C2 10.9799 2.48032 10.5004 3.07178 10.5004H18.2535L12.3299 4.84914C11.9009 4.43813 11.8876 3.75738 12.2938 3.33197C12.7044 2.90343 13.3428 2.88826 13.8115 3.29537Z" fill="black"/>
</svg>
