<svg width="24" height="24" viewBox="0 0 24 24" fill="none" xmlns="http://www.w3.org/2000/svg">
<path d="M20.9945 11.9847C20.9945 12.5472 20.5257 12.9879 19.9945 12.9879H18.9944L19.0163 17.9912C19.0163 18.0787 19.01 18.16 19.0007 18.2443V18.7506C19.0007 19.4413 18.4413 20.0007 17.7506 20.0007H17.2506C17.2162 20.0007 17.1818 19.9725 17.1475 19.9975C17.1037 19.9725 17.06 20.0007 17.0162 20.0007H15.2505C14.5599 20.0007 14.0005 19.4413 14.0005 18.7506V16.0005C14.0005 15.4474 13.5536 15.0005 13.0004 15.0005H11.0003C10.4472 15.0005 10.0003 15.4474 10.0003 16.0005V18.7506C10.0003 19.4413 9.44089 20.0007 8.75024 20.0007H7.00329C6.95641 20.0007 6.90954 19.9975 6.86266 19.9944C6.82516 19.9975 6.78766 20.0007 6.75016 20.0007H6.25013C5.55979 20.0007 5.00008 19.4413 5.00008 18.7506V15.2505C5.00008 15.2223 5.00102 15.1911 5.0029 15.163V12.9879H4.0016C3.43814 12.9879 3 12.5472 3 11.9847C3 11.7034 3.09388 11.4534 3.31283 11.2347L11.3253 4.25051C11.5441 4.03131 11.7941 4 12.0129 4C12.2316 4 12.4816 4.06263 12.6723 4.2192L20.6507 11.2347C20.9007 11.4534 21.0289 11.7034 20.9945 11.9847Z" fill="black"/>
</svg>
