<svg width="24" height="24" viewBox="0 0 24 24" fill="none" xmlns="http://www.w3.org/2000/svg">
<path d="M12 3C7.02891 3 3 7.02891 3 12C3 16.9711 7.02891 21 12 21C16.9711 21 21 16.9711 21 12C21 7.02891 16.9711 3 12 3ZM12 7.5C12.6212 7.5 13.125 8.00379 13.125 8.625C13.125 9.24621 12.6212 9.75 12 9.75C11.3788 9.75 10.875 9.24727 10.875 8.625C10.875 8.00273 11.3777 7.5 12 7.5ZM13.4062 16.5H10.5938C10.1297 16.5 9.75 16.1238 9.75 15.6562C9.75 15.1887 10.1279 14.8125 10.5938 14.8125H11.1562V12.5625H10.875C10.4092 12.5625 10.0312 12.1846 10.0312 11.7188C10.0312 11.2529 10.4109 10.875 10.875 10.875H12C12.4658 10.875 12.8438 11.2529 12.8438 11.7188V14.8125H13.4062C13.8721 14.8125 14.25 15.1904 14.25 15.6562C14.25 16.1221 13.8738 16.5 13.4062 16.5Z" fill="black"/>
</svg>
