<svg width="24" height="24" viewBox="0 0 24 24" fill="#FFFFFF" xmlns="http://www.w3.org/2000/svg">
<path d="M6.375 19.75H8.625C9.24727 19.75 9.75 19.2473 9.75 18.625C9.75 18.0027 9.24727 17.5 8.625 17.5H6.375C5.75379 17.5 5.25 16.9962 5.25 16.375V7.375C5.25 6.75379 5.75379 6.25 6.375 6.25H8.625C9.24727 6.25 9.75 5.74621 9.75 5.125C9.75 4.50379 9.24727 4 8.625 4H6.375C4.51102 4 3 5.51102 3 7.375V16.375C3 18.2383 4.51102 19.75 6.375 19.75ZM20.7469 11.2598L15.6809 6.47852C15.4356 6.24726 15.0762 6.18408 14.7668 6.31701C14.4573 6.4505 14.2567 6.75541 14.2567 7.0922L14.2535 9.62345L9.75345 9.62342C9.13154 9.62342 8.62775 10.1272 8.62775 10.7484V12.9984C8.62775 13.6196 9.13189 14.1234 9.75345 14.1234L14.2535 14.1235L14.2567 16.6231C14.2567 16.9598 14.4573 17.2647 14.7668 17.3983C15.0763 17.5312 15.4358 17.468 15.6809 17.2367L20.7469 12.4555C21.0844 12.1703 21.0844 11.5797 20.7469 11.2598Z" fill="white"/>
</svg>
