<svg width="24" height="24" viewBox="0 0 24 24" fill="none" xmlns="http://www.w3.org/2000/svg">
<path d="M19.7061 4.29297C19.3155 3.90234 18.6827 3.90234 18.292 4.29297L16.1845 6.40047C15.0155 5.52469 13.5686 5 11.9998 5C8.14047 5 4.99984 8.14062 4.99984 12C4.99984 13.5697 5.52453 15.0166 6.40047 16.1844L4.29297 18.2919C3.90234 18.6825 3.90234 19.3153 4.29297 19.7059C4.48828 19.9031 4.74391 20 4.99984 20C5.25578 20 5.51172 19.9023 5.70672 19.707L7.81422 17.5995C8.98422 18.475 10.4311 19 11.9998 19C15.8592 19 18.9998 15.8594 18.9998 12C18.9998 10.4303 18.4752 8.98344 17.5992 7.81562L19.7067 5.70812C20.0967 5.31656 20.0967 4.68375 19.7061 4.29297ZM6.99984 12C6.99984 9.24312 9.24297 7 11.9998 7C13.017 7 13.9623 7.30903 14.7527 7.83313L7.83391 14.7519C7.30922 13.9625 6.99984 13.0188 6.99984 12ZM16.9998 12C16.9998 14.7569 14.7567 17 11.9998 17C10.9827 17 10.0373 16.691 9.24703 16.1669L16.1658 9.24813C16.6905 10.0375 16.9998 10.9812 16.9998 12Z" fill="black"/>
</svg>
