<svg width="24" height="24" viewBox="0 0 24 24" fill="none" xmlns="http://www.w3.org/2000/svg">
<path d="M19.7778 4H7.55556C6.32813 4 5.33333 4.99479 5.33333 6.22222V14C5.33333 15.2274 6.32813 16.2222 7.55556 16.2222H19.7778C21.0052 16.2222 22 15.2274 22 14V6.22222C22 4.99479 21.0035 4 19.7778 4ZM20.3333 14C20.3333 14.3063 20.0841 14.5556 19.7778 14.5556H19.2222L15.4271 8.96875C15.3229 8.81597 15.1493 8.72222 14.9618 8.72222C14.776 8.72222 14.6024 8.815 14.4997 8.96962L12.3212 12.2373L11.5451 11.1736C11.441 11.0278 11.2743 10.9444 11.0972 10.9444C10.9198 10.9444 10.753 11.0292 10.6483 11.1727L8.11111 14.5556H7.55556C7.24924 14.5556 7 14.3063 7 14V6.22222C7 5.9159 7.24924 5.66667 7.55556 5.66667H19.7778C20.0841 5.66667 20.3333 5.9159 20.3333 6.22222V14ZM9.77778 6.77778C9.16424 6.77778 8.66667 7.27535 8.66667 7.88889C8.66667 8.50243 9.16424 9 9.77778 9C10.3917 9 10.8889 8.50243 10.8889 7.88889C10.8889 7.27535 10.3924 6.77778 9.77778 6.77778ZM17.8333 19.5556H6.16667C3.8691 19.5556 2 17.6875 2 15.3889V7.05556C2 6.59722 2.37326 6.22222 2.83333 6.22222C3.2934 6.22222 3.66667 6.59722 3.66667 7.05556V15.3889C3.66667 16.7674 4.78819 17.8889 6.16667 17.8889H17.8333C18.2934 17.8889 18.6667 18.2622 18.6667 18.7222C18.6667 19.1823 18.2951 19.5556 17.8333 19.5556Z" fill="black"/>
</svg>
