<svg width="24" height="24" viewBox="0 0 24 24" fill="none" xmlns="http://www.w3.org/2000/svg">
<path d="M21.6924 2.34106C20.7744 1.42301 18.2445 2.34414 15.1646 4.48342C12.2147 3.26261 8.69921 3.84665 6.30058 6.23942C3.90742 8.63727 3.32339 12.154 4.54458 15.1034C2.40535 18.1853 1.48418 20.7132 2.40222 21.6313C3.85273 23.0865 9.352 19.9456 14.6806 14.619C20.0091 9.2924 23.1496 3.7916 21.6924 2.34106ZM15.5826 15.5238C14.093 17.0134 12.2956 18.6057 10.4728 19.9617C13.1343 20.4844 15.8795 19.6491 17.7937 17.7298C19.7083 15.8152 20.5431 13.0654 20.0157 10.4089C18.6063 12.3087 16.9733 14.1331 15.5826 15.5238Z" fill="black"/>
</svg>
