<svg width="24" height="24" viewBox="0 0 24 24" fill="none" xmlns="http://www.w3.org/2000/svg">
<path d="M19.7143 10.0714H13.9286V4.28571C13.9286 3.57576 13.3528 3 12.6429 3H11.3571C10.6472 3 10.0714 3.57576 10.0714 4.28571V10.0714H4.28571C3.57576 10.0714 3 10.6472 3 11.3571V12.6429C3 13.3528 3.57576 13.9286 4.28571 13.9286H10.0714V19.7143C10.0714 20.4242 10.6472 21 11.3571 21H12.6429C13.3528 21 13.9286 20.4242 13.9286 19.7143V13.9286H19.7143C20.4242 13.9286 21 13.3528 21 12.6429V11.3571C21 10.6472 20.4242 10.0714 19.7143 10.0714Z" fill="black"/>
</svg>
