<svg width="24" height="24" viewBox="0 0 24 24" fill="none" xmlns="http://www.w3.org/2000/svg">
<path d="M14.6906 5.92656C14.9812 5.97156 15.1062 6.33093 14.8938 6.54406L13.7063 7.69062L13.9875 9.31562C14.0031 9.60937 13.7281 9.83437 13.4594 9.7L12.0063 8.93437L10.5406 9.70937C10.2719 9.84375 9.96875 9.61875 10.0125 9.32812L10.2937 7.7L9.10625 6.54406C8.89375 6.33093 9.01875 5.97156 9.30937 5.92656L10.9438 5.69093L11.6812 4.19787C11.8156 3.92846 12.1969 3.93968 12.3188 4.19787L13.0562 5.69093L14.6906 5.92656ZM14 12C14.5531 12 15 12.4469 15 13V19C15 19.5531 14.5531 20 14 20H10C9.44688 20 9 19.5531 9 19V13C9 12.4469 9.44688 12 10 12H14ZM7 14C7.55312 14 8 14.4469 8 15V19C8 19.5531 7.55312 20 7 20H3C2.44781 20 2 19.5531 2 19V15C2 14.4469 2.44781 14 3 14H7ZM16 17C16 16.4469 16.4469 16 17 16H21C21.5531 16 22 16.4469 22 17V19C22 19.5531 21.5531 20 21 20H17C16.4469 20 16 19.5531 16 19V17Z" fill="grey"/>
</svg>
