<svg width="24" height="24" viewBox="0 0 24 24" fill="none" xmlns="http://www.w3.org/2000/svg">
<path d="M9.21196 20.4993C8.54442 21.1669 7.45923 21.1669 6.7917 20.4993L3.50187 17.2081C2.83271 16.5406 2.83271 15.4554 3.50187 14.7878L5.31349 12.9744L7.0273 14.6879C7.24862 14.9128 7.61273 14.9128 7.83405 14.6879C8.05894 14.4666 8.05894 14.1024 7.83405 13.8811L6.12095 12.1677L7.59845 10.6898L9.31191 12.4033C9.53323 12.6282 9.89734 12.6282 10.1187 12.4033C10.3436 12.1819 10.3436 11.8178 10.1187 11.5965L8.40521 9.88306L9.88306 8.40521L11.5965 10.1187C11.8178 10.3436 12.1819 10.3436 12.4033 10.1187C12.6282 9.89734 12.6282 9.53323 12.4033 9.31191L10.6898 7.59846L12.1677 6.12096L13.8811 7.83406C14.1024 8.05895 14.4666 8.05895 14.6879 7.83406C14.9128 7.61273 14.9128 7.24862 14.6879 7.0273L12.9744 5.31349L14.7878 3.50187C15.4554 2.83271 16.5406 2.83271 17.2081 3.50187L20.4993 6.7917C21.1669 7.45924 21.1669 8.54443 20.4993 9.21196L9.21196 20.4993Z" fill="black"/>
</svg>
