<svg width="24" height="24" viewBox="0 0 24 24" fill="none" xmlns="http://www.w3.org/2000/svg">
<path d="M6.01174 4C6.37252 4 6.6831 4.25694 6.75212 4.61207L6.79918 5.00391H19.9975C20.6343 5.00391 21.1426 5.6392 20.9638 6.27951L19.2697 12.3042C19.1473 12.7372 18.752 13.0352 18.3034 13.0352H8.35524L8.64387 14.5411H18.3097C18.7269 14.5411 19.0626 14.8768 19.0626 15.294C19.0626 15.7113 18.7269 16.0469 18.3097 16.0469H7.99133C7.65878 16.0469 7.34819 15.7897 7.27918 15.4352L5.38868 5.50587H3.75293C3.33725 5.50587 3 5.16862 3 4.75293C3 4.33725 3.33725 4 3.75293 4H6.01174ZM7.01565 18.5567C7.01565 17.7254 7.69015 17.0509 8.52152 17.0509C9.35288 17.0509 10.0274 17.7254 10.0274 18.5567C10.0274 19.3881 9.35288 20.0626 8.52152 20.0626C7.69015 20.0626 7.01565 19.3881 7.01565 18.5567ZM19.0626 18.5567C19.0626 19.3881 18.3881 20.0626 17.5567 20.0626C16.7254 20.0626 16.0509 19.3881 16.0509 18.5567C16.0509 17.7254 16.7254 17.0509 17.5567 17.0509C18.3881 17.0509 19.0626 17.7254 19.0626 18.5567Z" fill="black"/>
</svg>
