<svg width="24" height="24" viewBox="0 0 24 24" fill="none" xmlns="http://www.w3.org/2000/svg">
<path d="M16.0176 12.8981V6.3827C16.0176 3.96165 14.0563 2 11.6701 2C9.2839 2 7.2522 3.96165 7.2522 6.3827V12.8981C6.47936 13.8666 6 15.0698 6 16.4003C6 19.5112 8.52397 22 11.6349 22C14.7458 22 17.2698 19.5112 17.2698 16.4003C17.2698 15.0698 16.7924 13.8607 16.0176 12.8981ZM11.6349 19.5308C9.90804 19.5308 8.5044 18.1272 8.5044 16.4355C8.5044 15.4377 8.98376 14.5228 9.7566 13.9409V6.41597C9.7566 5.37899 10.5979 4.53766 11.6349 4.53766C12.6719 4.53766 13.5132 5.37899 13.5132 6.41597V13.9409C14.286 14.5181 14.7654 15.4377 14.7654 16.4355C14.7654 18.126 13.3606 19.5308 11.6349 19.5308ZM11.6349 14.522C10.5975 14.522 9.7566 15.3629 9.7566 16.4003C9.7566 17.4377 10.5975 18.2786 11.6349 18.2786C12.6723 18.2786 13.5132 17.4377 13.5132 16.4003C13.5132 15.3629 12.6719 14.522 11.6349 14.522Z" fill="black"/>
</svg>
