<svg width="24" height="24" viewBox="0 0 24 24" fill="none" xmlns="http://www.w3.org/2000/svg">
<path d="M17.6531 10.7C20.2781 11.4219 22 12.6313 22 14C22 16.2094 17.5219 18 12 18C6.47813 18 2 16.2094 2 14C2 12.6313 3.72125 11.4219 6.34688 10.7C6.8375 8.025 9.18438 6 12 6C14.8187 6 17.1625 8.025 17.6531 10.7ZM12 7.5C10.15 7.5 8.575 8.68437 7.99062 10.3344C7.83437 10.7781 7.75 11.2531 7.75 11.75C7.75 11.75 9 13 12 13C15 13 16.25 11.75 16.25 11.75C16.25 11.2531 16.1656 10.7781 16.0094 10.3344C15.425 8.68437 13.85 7.5 12 7.5ZM12 16.5C12.4156 16.5 12.75 16.1656 12.75 15.75C12.75 15.3344 12.4156 15 12 15C11.5844 15 11.25 15.3344 11.25 15.75C11.25 16.1656 11.5844 16.5 12 16.5ZM6 13.5C5.58437 13.5 5.25 13.8344 5.25 14.25C5.25 14.6656 5.58437 15 6 15C6.41563 15 6.75 14.6656 6.75 14.25C6.75 13.8344 6.41563 13.5 6 13.5ZM18 15C18.4156 15 18.75 14.6656 18.75 14.25C18.75 13.8344 18.4156 13.5 18 13.5C17.5844 13.5 17.25 13.8344 17.25 14.25C17.25 14.6656 17.5844 15 18 15Z" fill="white"/>
</svg>
