<svg width="24" height="24" viewBox="0 0 24 24" fill="none" xmlns="http://www.w3.org/2000/svg">
<path d="M7.5 17.4453C7.19344 17.5466 6.915 17.6 6.6 17.6C5.10881 17.6 3.9 16.3906 3.9 14.9V6.8C3.40303 6.8 3 6.39697 3 5.9C3 5.40303 3.40303 5 3.9 5H9.3C9.79781 5 10.2 5.40303 10.2 5.9C10.2 6.39697 9.79781 6.8 9.3 6.8V13.7159L7.92188 15.9519C7.64625 16.4019 7.5 16.9194 7.5 17.4453ZM5.7 9.5H7.5V6.8H5.7V9.5ZM17.4 5C17.8978 5 18.3 5.40303 18.3 5.9C18.3 6.39697 17.8978 6.8 17.4 6.8V11.0441L20.7103 16.4244C20.8988 16.7338 21 17.0853 21 17.4481C21 18.5253 20.1253 19.4 19.0481 19.4H10.3519C9.27469 19.4 8.37469 18.5253 8.37469 17.4481C8.37469 17.0853 8.50125 16.7338 8.68969 16.4244L11.9747 11.0441V6.8C11.5022 6.8 11.0747 6.39697 11.0747 5.9C11.0747 5.40303 11.5022 5 11.9747 5H17.4ZM13.8 6.8V11.3C13.8 11.4659 13.755 11.6291 13.6678 11.7725L12.2953 14H17.1047L15.7322 11.7725C15.645 11.6291 15.6 11.4659 15.6 11.3V6.8H13.8Z" fill="black"/>
</svg>
